<svg xmlns="http://www.w3.org/2000/svg" viewBox="0 0 960 960">
  <g fill="none" stroke="#000" stroke-width="38" stroke-linecap="round" stroke-linejoin="round">
    <path d="M218 171h344v604H218z"/>
    <path d="M562 277h88v498h-88"/>
    <path d="M271 243h238"/>
    <path d="M285 338h210v285H285z"/>
    <path d="M338 705h88"/>
    <path d="M650 384h89c44 0 80 36 80 80v231"/>
    <path d="M650 604h169"/>
    <path d="M739 695v82"/>
    <path d="M298 621c-20-38-15-81 13-118 16 28 42 42 62 62 7-39 28-69 53-98 50 48 80 95 80 150 0 63-49 104-109 104s-99-38-99-100z"/>
  </g>
</svg>